<svg width="16" height="14" viewBox="0 0 16 14" fill="none" xmlns="http://www.w3.org/2000/svg">
<path d="M14.325 1.00939C12.5188 -0.509362 9.72813 -0.281237 8 1.47814C6.27188 -0.281237 3.48125 -0.512487 1.675 1.00939C-0.674996 2.98751 -0.331246 6.21251 1.34375 7.92189L6.825 13.5063C7.1375 13.825 7.55625 14.0031 8 14.0031C8.44688 14.0031 8.8625 13.8281 9.175 13.5094L14.6563 7.92501C16.3281 6.21564 16.6781 2.99064 14.325 1.00939ZM13.5875 6.86876L8.10625 12.4531C8.03125 12.5281 7.96875 12.5281 7.89375 12.4531L2.4125 6.86876C1.27188 5.70626 1.04063 3.50626 2.64063 2.15939C3.85625 1.13751 5.73125 1.29064 6.90625 2.48751L8 3.60314L9.09375 2.48751C10.275 1.28439 12.15 1.13751 13.3594 2.15626C14.9563 3.50314 14.7188 5.71564 13.5875 6.86876Z" fill="#DFE3E8"/>
</svg>
