<svg width="22" height="22" viewBox="0 0 22 22" fill="none" xmlns="http://www.w3.org/2000/svg">
<path d="M21.1836 10.8223L12.1274 1.01641L11.5204 0.358792C11.382 0.209943 11.195 0.126404 11 0.126404C10.8051 0.126404 10.618 0.209943 10.4797 0.358792L0.816455 10.8223C0.674731 10.9752 0.562724 11.1573 0.487045 11.3579C0.411367 11.5585 0.373551 11.7735 0.37583 11.9902C0.385205 12.884 1.07192 13.5975 1.89692 13.5975H2.89302V21.8672H19.1071V13.5975H20.1243C20.525 13.5975 20.9024 13.4273 21.186 13.1201C21.3256 12.9693 21.4363 12.79 21.5115 12.5926C21.5867 12.3952 21.6251 12.1835 21.6243 11.9699C21.6243 11.5383 21.4672 11.1295 21.1836 10.8223ZM12.3125 20.0391H9.68755V14.8594H12.3125V20.0391ZM17.4196 11.7693V20.0391H13.8125V14.25C13.8125 13.6889 13.393 13.2344 12.875 13.2344H9.12505C8.60708 13.2344 8.18755 13.6889 8.18755 14.25V20.0391H4.58052V11.7693H2.33052L11.0024 2.38242L11.5438 2.96895L19.6719 11.7693H17.4196Z" fill="black"/>
</svg>
