<svg width="21" height="21" viewBox="0 0 21 21" fill="none" xmlns="http://www.w3.org/2000/svg">
<path d="M12.1172 16.0312C12 16.1484 11.8047 16.2266 11.6094 16.2266C11.4141 16.2266 11.2578 16.1484 11.1406 16.0312L6.0625 10.9531C5.90625 10.7969 5.82812 10.6406 5.82812 10.4453C5.82812 10.25 5.90625 10.0938 6.0625 9.9375L11.1406 4.85938C11.2578 4.74219 11.4141 4.66406 11.6094 4.66406C11.8047 4.66406 12 4.74219 12.1172 4.85938L13.25 6.03125C13.4062 6.14844 13.4844 6.30469 13.4844 6.5C13.4844 6.69531 13.4062 6.89062 13.25 7.00781L9.85156 10.4453L13.25 13.8828C13.4062 14 13.4844 14.1953 13.4844 14.3906C13.4844 14.5859 13.4062 14.7422 13.25 14.8594L12.1172 16.0312ZM19.1094 10.4453C19.1094 8.88281 18.7578 7.4375 17.9766 6.14844C17.1953 4.82031 16.1797 3.80469 14.8516 3.02344C13.5625 2.24219 12.1172 1.89062 10.5547 1.89062C8.99219 1.89062 7.54688 2.24219 6.25781 3.02344C4.92969 3.80469 3.91406 4.82031 3.13281 6.14844C2.35156 7.4375 2 8.88281 2 10.4453C2 12.0078 2.35156 13.4531 3.13281 14.7422C3.91406 16.0703 4.92969 17.0859 6.25781 17.8672C7.54688 18.6484 8.99219 19 10.5547 19C12.1172 19 13.5625 18.6484 14.8516 17.8672C16.1797 17.0859 17.1953 16.0703 17.9766 14.7422C18.7578 13.4531 19.1094 12.0078 19.1094 10.4453Z" fill="black"/>
</svg>
