<svg width="21" height="21" viewBox="0 0 21 21" fill="none" xmlns="http://www.w3.org/2000/svg">
<path d="M9.96875 16.0312C9.85156 16.1484 9.69531 16.2266 9.5 16.2266C9.30469 16.2266 9.10938 16.1484 8.99219 16.0312L7.85938 14.8594C7.70312 14.7422 7.625 14.5859 7.625 14.3906C7.625 14.1953 7.70312 14 7.85938 13.8828L11.2578 10.4453L7.85938 7.00781C7.70312 6.89062 7.625 6.69531 7.625 6.5C7.625 6.30469 7.70312 6.14844 7.85938 6.03125L8.99219 4.85938C9.10938 4.74219 9.30469 4.66406 9.5 4.66406C9.69531 4.66406 9.85156 4.74219 9.96875 4.85938L15.0469 9.9375C15.2031 10.0938 15.2812 10.25 15.2812 10.4453C15.2812 10.6406 15.2031 10.7969 15.0469 10.9531L9.96875 16.0312ZM19.1094 10.4453C19.1094 8.88281 18.7578 7.4375 17.9766 6.14844C17.1953 4.82031 16.1797 3.80469 14.8516 3.02344C13.5625 2.24219 12.1172 1.89062 10.5547 1.89062C8.99219 1.89062 7.54688 2.24219 6.25781 3.02344C4.92969 3.80469 3.91406 4.82031 3.13281 6.14844C2.35156 7.4375 2 8.88281 2 10.4453C2 12.0078 2.35156 13.4531 3.13281 14.7422C3.91406 16.0703 4.92969 17.0859 6.25781 17.8672C7.54688 18.6484 8.99219 19 10.5547 19C12.1172 19 13.5625 18.6484 14.8516 17.8672C16.1797 17.0859 17.1953 16.0703 17.9766 14.7422C18.7578 13.4531 19.1094 12.0078 19.1094 10.4453Z" fill="black"/>
</svg>
